<svg width="76" height="77" viewBox="0 0 76 77" fill="none" xmlns="http://www.w3.org/2000/svg">
<rect x="0.078125" y="0.615723" width="75" height="76" rx="37.5" fill="#EAF1FF"/>
<path fill-rule="evenodd" clip-rule="evenodd" d="M55.7534 34.8529C56.8588 35.7271 57.1233 37.3877 56.3441 38.562C55.565 39.7362 54.0372 39.9796 52.9318 39.1054L37.6617 27.0298L22.2387 39.8018C21.1553 40.699 19.6262 40.4899 18.8235 39.3346C18.0208 38.1794 18.2484 36.5155 19.3319 35.6183L35.9997 21.8154C36.0878 21.7425 36.1797 21.6788 36.2742 21.6244C36.919 20.904 37.9838 20.8008 38.7736 21.4253L55.7534 34.8529ZM24.0464 40.4257C23.6063 40.727 23.1583 41.1533 23.1583 41.6866V56.9424C23.1583 57.4947 23.606 57.9424 24.1583 57.9424H31.7842C32.3365 57.9424 32.7842 57.4947 32.7842 56.9424V49.4929C32.7842 48.3883 33.6797 47.4929 34.7842 47.4929H40.4039C41.5085 47.4929 42.4039 48.3883 42.4039 49.4929V56.9424C42.4039 57.4947 42.8516 57.9424 43.4039 57.9424H51.0173C51.5696 57.9424 52.0173 57.4947 52.0173 56.9424V41.2142C52.0173 40.9101 51.8789 40.6224 51.6412 40.4327L38.2879 29.773C38.1375 29.6529 37.9507 29.5875 37.7582 29.5875C37.5639 29.5875 37.3755 29.6541 37.2243 29.7763L24.1753 40.3296C24.1329 40.3639 24.0899 40.3959 24.0464 40.4257Z" fill="url(#paint0_linear_1209_4529)"/>
<defs>
<linearGradient id="paint0_linear_1209_4529" x1="44.4829" y1="53.7159" x2="30.4925" y2="25.5741" gradientUnits="userSpaceOnUse">
<stop stop-color="#357AFF"/>
<stop offset="1" stop-color="#6197FF"/>
</linearGradient>
</defs>
</svg>
